<svg xmlns="http://www.w3.org/2000/svg" viewBox="0 0 405.6 460"><defs><style>.cls-1{font-size:198.62px;font-family:Arial-BoldMT, Arial;font-weight:700;}.cls-1,.cls-3{fill:#fff;}.cls-2{letter-spacing:-0.04em;}</style></defs><title>logo_Mars</title><g id="Calque_2" data-name="Calque 2"><g id="Calque_3" data-name="Calque 3"><path d="M118.22,48.92H245.68S188.3,24,118.22,48.92Z"/><path d="M304,84.19l35.28-35.28h-93.6S284.72,65.85,304,84.19Z"/><polygon points="296.95 22.58 296.95 0 405.6 0 405.6 107.71 381.61 107.71 381.61 37.84 372.67 48.92 339.28 48.92 366.56 22.58 296.95 22.58"/><path d="M320.47,101.12l52.21-52.21h6.58V295.38h-31S400,202.25,320.47,101.12Z"/><path d="M312.94,347.59v-31a224.92,224.92,0,0,0,13.15-21.17h22.13S333.63,330.18,312.94,347.59Z"/><path d="M34.49,326.89s53.62,74.79,138.75,75.73c0,0,88,5.17,139.69-55V460H34.49Z"/><path d="M34.49,295.38v31.51s-68.67-89.84-12.23-193.78v64s-3.76,32.45.47,47v51.27Z"/><path d="M118.22,48.92s-71,29.16-96,84.19V48.92Z"/><circle cx="181.95" cy="220.51" r="162.39"/><text class="cls-1" transform="translate(23.69 218.81)">M<tspan class="cls-2" x="165.45" y="0">A</tspan><tspan x="12.8" y="162.25">RS</tspan></text><path class="cls-3" d="M326.09,295.38a161.83,161.83,0,0,1-13.15,21.17V295.38Z"/></g></g></svg>